<svg width="1200" height="400" viewBox="0 0 1200 400" xmlns="http://www.w3.org/2000/svg" role="img" aria-label="Veli-Chat hero banner">
  <defs>
    <linearGradient id="bg" x1="0" y1="0" x2="1" y2="1">
      <stop offset="0%" stop-color="#0b1220" />
      <stop offset="50%" stop-color="#0f1c35" />
      <stop offset="100%" stop-color="#121a2b" />
    </linearGradient>
    <linearGradient id="accent" x1="0" y1="0" x2="1" y2="0">
      <stop offset="0%" stop-color="#7c3aed" />
      <stop offset="100%" stop-color="#22d3ee" />
    </linearGradient>
  </defs>
  <rect width="1200" height="400" rx="28" fill="url(#bg)" />
  <g opacity="0.15">
    <path d="M60 60 H1140" stroke="#94a3b8" stroke-width="1" />
    <path d="M60 120 H1140" stroke="#94a3b8" stroke-width="1" />
    <path d="M60 180 H1140" stroke="#94a3b8" stroke-width="1" />
    <path d="M60 240 H1140" stroke="#94a3b8" stroke-width="1" />
    <path d="M60 300 H1140" stroke="#94a3b8" stroke-width="1" />
  </g>
  <rect x="70" y="70" width="1060" height="260" rx="22" fill="#0b1020" stroke="#1f2937" />
  <rect x="70" y="70" width="1060" height="44" rx="22" fill="#111827" />
  <circle cx="100" cy="92" r="6" fill="#ef4444" />
  <circle cx="120" cy="92" r="6" fill="#f59e0b" />
  <circle cx="140" cy="92" r="6" fill="#22c55e" />
  <rect x="90" y="145" width="1020" height="8" fill="url(#accent)" opacity="0.8" />
  <text x="120" y="210" font-family="ui-monospace, SFMono-Regular, Menlo, Monaco, Consolas, monospace" font-size="52" fill="#e2e8f0" font-weight="700">
    Veli-Chat
  </text>
  <text x="120" y="255" font-family="ui-monospace, SFMono-Regular, Menlo, Monaco, Consolas, monospace" font-size="20" fill="#94a3b8">
    Two-party, end-to-end encrypted, serverless terminal chat over Tor
  </text>
  <g transform="translate(720 180)">
    <rect x="0" y="0" width="120" height="80" rx="12" fill="#111827" stroke="#334155" />
    <rect x="18" y="20" width="84" height="10" rx="5" fill="#22d3ee" />
    <rect x="18" y="40" width="60" height="10" rx="5" fill="#7c3aed" />
    <rect x="160" y="-10" width="140" height="90" rx="12" fill="#0f172a" stroke="#334155" />
    <rect x="178" y="12" width="90" height="10" rx="5" fill="#38bdf8" />
    <rect x="178" y="32" width="70" height="10" rx="5" fill="#22d3ee" />
    <path d="M120 40 H160" stroke="#64748b" stroke-width="2" />
  </g>
</svg>
